<svg width="41" height="41" viewBox="0 0 41 41" fill="none" xmlns="http://www.w3.org/2000/svg">
<path d="M31.1087 13.3634H27.6109V8.39217C27.6109 7.4701 27.2455 6.58561 26.5947 5.93242C25.9439 5.27922 25.0608 4.91056 24.1388 4.90717H16.8613C15.9392 4.91056 15.0561 5.27922 14.4053 5.93242C13.7545 6.58561 13.3891 7.4701 13.3891 8.39217V13.3634H9.89125C8.48105 13.3634 7.1286 13.9236 6.13143 14.9208C5.13427 15.9179 4.57407 17.2704 4.57407 18.6806V34.7859C4.57407 35.1257 4.70905 35.4516 4.94934 35.6919C5.18962 35.9322 5.51551 36.0672 5.85532 36.0672H16.4384C16.4384 36.0672 16.4384 36.0672 16.5153 36.0672H24.4847C24.4847 36.0672 24.4847 36.0672 24.5616 36.0672H35.1447C35.4845 36.0672 35.8104 35.9322 36.0507 35.6919C36.2909 35.4516 36.4259 35.1257 36.4259 34.7859V18.6806C36.4259 17.2704 35.8657 15.9179 34.8686 14.9208C33.8714 13.9236 32.519 13.3634 31.1087 13.3634ZM15.9516 8.39217C15.9515 8.14971 16.047 7.91699 16.2172 7.74435C16.3875 7.57171 16.6188 7.47303 16.8613 7.46967H24.1388C24.3812 7.47303 24.6125 7.57171 24.7828 7.74435C24.953 7.91699 25.0485 8.14971 25.0484 8.39217V16.1822H15.9516V8.39217ZM23.2034 33.5047H17.7966V22.8703H23.2034V33.5047ZM33.8634 33.5047H25.7659V21.589C25.7659 21.2492 25.6309 20.9233 25.3907 20.6831C25.1504 20.4428 24.8245 20.3078 24.4847 20.3078H16.5153C16.1755 20.3078 15.8496 20.4428 15.6093 20.6831C15.3691 20.9233 15.2341 21.2492 15.2341 21.589V33.5047H7.13657V18.6806C7.13994 17.9511 7.43124 17.2523 7.94712 16.7365C8.46299 16.2206 9.1617 15.9293 9.89125 15.9259H13.3891V17.4634C13.3891 17.8032 13.5241 18.1291 13.7643 18.3694C14.0046 18.6097 14.3305 18.7447 14.6703 18.7447H26.3297C26.6695 18.7447 26.9954 18.6097 27.2357 18.3694C27.4759 18.1291 27.6109 17.8032 27.6109 17.4634V15.9259H31.1087C31.8383 15.9293 32.537 16.2206 33.0529 16.7365C33.5688 17.2523 33.8601 17.9511 33.8634 18.6806V33.5047Z" fill="#00C4B7"/>
<path d="M23.0625 10.865H21.525V9.3403C21.525 9.08544 21.4237 8.84103 21.2435 8.66082C21.0633 8.48061 20.8189 8.37936 20.564 8.37936C20.3092 8.37936 20.0648 8.48061 19.8846 8.66082C19.7044 8.84103 19.6031 9.08544 19.6031 9.3403V10.865H18.0656C17.8108 10.865 17.5663 10.9662 17.3861 11.1464C17.2059 11.3267 17.1047 11.5711 17.1047 11.8259C17.1047 12.0808 17.2059 12.3252 17.3861 12.5054C17.5663 12.6856 17.8108 12.7869 18.0656 12.7869H19.6031V14.3244C19.6031 14.5792 19.7044 14.8236 19.8846 15.0038C20.0648 15.1841 20.3092 15.2853 20.564 15.2853C20.8189 15.2853 21.0633 15.1841 21.2435 15.0038C21.4237 14.8236 21.525 14.5792 21.525 14.3244V12.8125H23.0625C23.3173 12.8125 23.5618 12.7112 23.742 12.531C23.9222 12.3508 24.0234 12.1064 24.0234 11.8516C24.0234 11.5967 23.9222 11.3523 23.742 11.1721C23.5618 10.9919 23.3173 10.8906 23.0625 10.8906V10.865Z" fill="#00C4B7"/>
<path d="M11.8772 20.0644H10.1091C9.70573 20.0644 9.37875 20.3914 9.37875 20.7947V22.5628C9.37875 22.9662 9.70573 23.2931 10.1091 23.2931H11.8772C12.2805 23.2931 12.6075 22.9662 12.6075 22.5628V20.7947C12.6075 20.3914 12.2805 20.0644 11.8772 20.0644Z" fill="#00C4B7"/>
<path d="M11.8772 26.4706H10.1091C9.70573 26.4706 9.37875 26.7976 9.37875 27.201V28.9691C9.37875 29.3724 9.70573 29.6994 10.1091 29.6994H11.8772C12.2805 29.6994 12.6075 29.3724 12.6075 28.9691V27.201C12.6075 26.7976 12.2805 26.4706 11.8772 26.4706Z" fill="#00C4B7"/>
<path d="M30.8909 20.0644H29.1228C28.7195 20.0644 28.3925 20.3914 28.3925 20.7947V22.5628C28.3925 22.9662 28.7195 23.2931 29.1228 23.2931H30.8909C31.2943 23.2931 31.6212 22.9662 31.6212 22.5628V20.7947C31.6212 20.3914 31.2943 20.0644 30.8909 20.0644Z" fill="#00C4B7"/>
<path d="M30.8909 26.4706H29.1228C28.7195 26.4706 28.3925 26.7976 28.3925 27.201V28.9691C28.3925 29.3724 28.7195 29.6994 29.1228 29.6994H30.8909C31.2943 29.6994 31.6212 29.3724 31.6212 28.9691V27.201C31.6212 26.7976 31.2943 26.4706 30.8909 26.4706Z" fill="#00C4B7"/>
</svg>
