<svg width="538" height="676" viewBox="0 0 538 676" fill="none" xmlns="http://www.w3.org/2000/svg">
<path fill-rule="evenodd" clip-rule="evenodd" d="M320.782 0.810192C397.09 -3.2369 486.877 6.29589 534.746 65.8589C581.959 124.606 537.449 211.577 549.906 285.908C559.629 343.924 603.279 392.15 599.263 450.839C594.481 520.738 583.412 602.689 525.531 642.167C467.731 681.589 390.52 646.383 320.782 640.775C257.924 635.721 193.878 641.472 138.637 611.056C78.3365 577.854 8.29947 532.816 0.493589 464.423C-7.34966 395.703 80.5648 355.029 101.907 289.238C123.268 223.39 80.849 142.858 122.696 87.7127C167.377 28.8342 246.974 4.72476 320.782 0.810192Z" fill="url(#paint0_linear)"/>
<g clip-path="url(#clip0)">
<path d="M283.93 651.63C283.93 651.63 283.26 660.41 282.93 664.88C282.6 669.35 283 676.08 300.42 675.88C318.89 675.64 344.17 677.8 345.9 670.82C347.63 663.84 334.4 660.26 334.4 660.26L293.15 651.66L283.93 651.63Z" fill="#404041"/>
<path d="M291.42 654.39C291.42 654.39 296.03 663.77 308.42 663.64C320.81 663.51 331.83 665.64 334.42 660.23C334.42 660.23 315.3 651.86 310.32 647.15L299.18 647.91L291.42 654.39Z" fill="#F9CBC1"/>
<path d="M237.23 621.42C237.23 621.42 230.15 628.25 227.86 632.77C227.86 632.77 234.8 642.43 240.17 648.84C246.43 656.32 256.17 671.12 271.41 668.99C286.65 666.86 271.75 652.75 271.75 652.75L237.23 621.42Z" fill="#404041"/>
<path d="M242.9 615.09L237.23 621.42C237.23 621.42 256.79 665.52 271.75 652.75C271.75 652.75 261.75 641.3 264.83 632.85C267.91 624.4 242.9 615.09 242.9 615.09Z" fill="#F9CBC1"/>
<path d="M262.11 506.52L269.3 555C269.3 555 257.88 591.46 239.67 613.91C239.67 613.91 250.08 630.99 267.6 635.75C267.6 635.75 271.73 626 276.95 620.31L279.89 655.67C279.89 655.67 297.89 659.91 310.27 647.18C310.27 647.18 307.63 622.54 307.27 608.3C306.91 594.06 304.86 564.17 304.86 564.17C304.86 564.17 317.39 544.42 318.62 527.76C319.85 511.1 319.62 480.01 319.62 480.01L262.11 506.52Z" fill="#DEDFE1"/>
<path d="M314.59 364.17L319.85 350.29L323.42 351.88C323.42 351.88 326.29 353.33 326.98 349.74C327.67 346.15 330.98 346.31 329.23 334.6C327.48 322.89 326.34 288.26 318.87 280.29C311.4 272.32 296.64 265.29 296.64 265.29L278.64 261.61L259 264.43C259 264.43 235.41 274.84 226.36 287.43C217.31 300.02 185.66 335.51 197.73 346.25C209.8 356.99 241.87 360.03 241.87 360.03L250 355.23L251.74 362.73C251.74 362.73 244.29 433.73 222.87 496.73C222.87 496.73 254.99 531.39 333.02 490.88C333.05 490.89 317.34 406 314.59 364.17ZM248.29 341.85L228.77 330.55C228.77 330.55 242.91 317.77 245.49 312.2L252.05 343.73L248.29 341.85Z" fill="#E9E9E9"/>
<path d="M268.34 286.16L273.17 368.78L320.45 363.52L318.94 285.38L268.34 286.16Z" fill="#58595B"/>
<path d="M294.07 255.69L287.61 252.85L290.67 262.33L294.07 255.69Z" fill="#58595B"/>
<path d="M261.18 250.89C260.323 251 259.542 251.435 258.996 252.105C258.451 252.775 258.184 253.629 258.25 254.49L259 264.43C259 264.43 274.54 274.43 289.19 271.52C289.19 271.52 294.33 269.45 296.66 265.29L296.8 258.38C296.812 258.003 296.717 257.63 296.526 257.304C296.335 256.978 296.055 256.713 295.72 256.54L294.09 255.69L290.7 259.76L261.18 250.89Z" fill="#A6A8AB"/>
<path d="M265.31 254.66L261.18 250.89L267.7 245.41L265.31 254.66Z" fill="#58595B"/>
<path d="M262 238.13C262 238.13 265.38 246.67 265.29 254.66C265.29 254.66 276.57 261.31 285.95 262.03L289.26 271.85L288.8 261.22L290.68 259.76C290.478 256.133 290.555 252.495 290.91 248.88C291.51 244.76 262 238.13 262 238.13Z" fill="#DEA2A9"/>
<path d="M257 235.61C257 235.61 258.37 241.61 264.21 239.27C270.05 236.93 260.48 220.49 257.21 223.76C253.94 227.03 255.47 231.48 255.47 231.48L257 235.61Z" fill="#E8B7AF"/>
<path d="M300.21 235.54C300.21 235.54 299.44 241.65 293.39 239.9C287.34 238.15 295.25 220.84 298.79 223.77C302.33 226.7 301.29 231.28 301.29 231.28L300.21 235.54Z" fill="#E8B7AF"/>
<path d="M259.29 228C259.29 228 265.18 260.92 282.71 258.43C298.19 256.26 297.1 227.5 297.1 227.5L299.64 217.5L275.33 204.21L255.13 221.21L259.29 228Z" fill="#F9CBC1"/>
<path d="M254.73 215C254.73 215 249.4 228.6 257 235.61C257 235.61 254.54 227.26 259.27 228.02L258.82 225.6C258.82 225.6 272.34 219.07 275.67 208.34C275.67 208.34 286.67 221.88 297.17 223.28L297.08 227.5C297.08 227.5 301.13 222.97 301.38 229.83C301.38 229.83 307.46 224.58 299.38 210.27C291.3 195.96 274 191.71 274 191.71L255.21 209.1L254.73 215Z" fill="#59595C"/>
<path d="M254.73 215C254.73 215 246.51 205 245.73 194.45C245.73 194.45 270.03 174.76 306.02 192.2C306.02 192.2 308.49 200.02 299.49 210.26C299.44 210.27 276.07 185.61 254.73 215Z" fill="#E9E9E9"/>
<path d="M247.61 202.55C251.868 199.841 256.469 197.712 261.29 196.22C263.704 195.45 266.162 194.826 268.65 194.35C271.149 193.893 273.674 193.596 276.21 193.46C281.309 193.169 286.421 193.741 291.33 195.15C296.212 196.543 300.768 198.896 304.73 202.07C300.417 199.607 295.768 197.784 290.93 196.66C289.74 196.36 288.52 196.19 287.32 195.96C286.12 195.73 284.89 195.62 283.66 195.56C281.216 195.348 278.76 195.312 276.31 195.45C271.382 195.707 266.493 196.468 261.72 197.72C256.894 198.948 252.176 200.563 247.61 202.55Z" fill="#A6A7AA"/>
<path d="M241.85 360.07C241.85 360.07 255.06 358.15 255.65 372.07C255.65 372.07 270.29 372.99 277.56 365.68C277.56 365.68 283.11 372.99 286.72 372.37C290.33 371.75 288.51 368.89 286.52 367.71C284.53 366.53 281.52 354.61 274.66 353.24C267.8 351.87 248.29 341.88 248.29 341.88C248.29 341.88 243.43 347.54 241.85 360.07Z" fill="#F9CBC1"/>
<path d="M311.56 337.87C311.56 337.87 308.83 335.57 311.5 334.05C314.17 332.53 322.5 334.94 322.5 334.94C322.5 334.94 326.6 334.45 326.58 336.94C326.56 339.43 324.71 340.46 325.64 342.23C326.26 343.42 325.9 345.5 325.59 346.75C325.428 347.437 325.37 348.145 325.42 348.85C325.51 350.14 325.42 352.14 323.85 351.99C321.58 351.76 315.07 350.31 313.99 350.29C312.91 350.27 309.89 349.5 312.34 346.52C312.34 346.52 307.6 344.84 311.34 342.15C311.33 342.12 307.38 339.58 311.56 337.87Z" fill="#F9CBC1"/>
<path d="M311.56 337.87C312.44 337.898 313.318 337.971 314.19 338.09C315.07 338.2 315.94 338.36 316.81 338.52C317.68 338.68 318.54 338.88 319.4 339.11C320.26 339.34 321.13 339.59 321.98 339.91C321.1 339.882 320.222 339.808 319.35 339.69C318.47 339.58 317.61 339.42 316.74 339.26C315.87 339.1 315 338.9 314.14 338.66C313.28 338.42 312.42 338.19 311.56 337.87Z" fill="#DEA2A9"/>
<path d="M311.33 342.12C312.223 342.152 313.114 342.228 314 342.35C314.88 342.46 315.77 342.62 316.65 342.78C317.53 342.94 318.4 343.15 319.28 343.39C320.163 343.611 321.035 343.878 321.89 344.19C320.997 344.158 320.106 344.082 319.22 343.96C318.34 343.85 317.46 343.69 316.58 343.53C315.7 343.37 314.82 343.16 313.94 342.92C313.057 342.699 312.185 342.432 311.33 342.12Z" fill="#DEA2A9"/>
<path d="M312.35 346.49C315.336 346.48 318.303 346.967 321.13 347.93C319.649 347.954 318.169 347.837 316.71 347.58C315.226 347.352 313.767 346.987 312.35 346.49Z" fill="#DEA2A9"/>
<path d="M245.49 312.2C247.905 308.361 250.877 304.904 254.31 301.94C253.132 303.866 251.794 305.689 250.31 307.39C248.842 309.126 247.23 310.736 245.49 312.2Z" fill="#A6A7AA"/>
<path d="M271.85 286.11C271.77 285.11 271.74 284.11 271.68 283.11C271.62 282.11 271.68 281.11 271.61 280.11V280L271.83 279.88C273.23 279.11 274.67 278.4 276.1 277.69C277.53 276.98 278.98 276.3 280.43 275.62C281.88 274.94 283.35 274.3 284.82 273.68C286.29 273.06 287.82 272.44 289.29 271.88C287.91 272.71 286.52 273.5 285.1 274.25C283.68 275 282.27 275.76 280.84 276.48C279.41 277.2 278 277.86 276.51 278.54C275.02 279.22 273.61 279.89 272.14 280.54L272.34 280.22C272.28 281.22 272.22 282.22 272.15 283.22C272.08 284.22 272 285.12 271.85 286.11Z" fill="#A6A7AA"/>
<path d="M250.66 371.94C254.454 371.915 258.243 371.638 262 371.11C265.76 370.537 269.485 369.759 273.16 368.78C269.686 370.446 265.976 371.566 262.16 372.1C258.344 372.683 254.458 372.629 250.66 371.94Z" fill="#A6A7AA"/>
<path d="M273.17 368.78C273.25 374.72 273.1 380.66 272.96 386.6C272.82 392.54 272.5 398.46 272.16 404.39C271.493 416.25 270.527 428.09 269.26 439.91C267.96 451.72 266.53 463.51 264.68 475.25C263.8 481.12 262.77 486.97 261.75 492.82C261.25 495.75 260.66 498.66 260.09 501.57L258.34 510.31C260.34 498.6 262.34 486.9 263.92 475.14C265.5 463.38 267.05 451.61 268.27 439.81C269.49 428.01 270.55 416.18 271.39 404.35C272.23 392.52 272.87 380.65 273.17 368.78Z" fill="#A6A7AA"/>
<path d="M244.18 339.47C243.18 341.01 242.4 342.6 241.6 344.19C240.815 345.79 240.11 347.429 239.49 349.1C238.856 350.761 238.318 352.457 237.88 354.18C237.41 355.9 237.1 357.66 236.77 359.44C236.682 357.623 236.799 355.801 237.12 354.01C237.24 353.11 237.5 352.23 237.7 351.34C237.9 350.45 238.22 349.59 238.56 348.74C239.196 347.032 239.985 345.385 240.92 343.82C241.834 342.248 242.928 340.789 244.18 339.47Z" fill="#A6A7AA"/>
<path d="M304.82 564.14C304.31 559.14 303.91 554.2 303.52 549.22C303.13 544.24 302.84 539.22 302.52 534.28C302.2 529.34 301.94 524.28 301.72 519.33L301.4 511.85C301.33 509.35 301.23 506.85 301.19 504.36C301.45 506.84 301.65 509.36 301.89 511.82L302.49 519.28C302.87 524.28 303.17 529.28 303.49 534.22C303.81 539.16 304.06 544.22 304.29 549.17C304.52 554.12 304.72 559.15 304.82 564.14Z" fill="#919395"/>
<path d="M269.3 555C270.38 560.38 271.3 565.79 272.14 571.2C272.98 576.61 273.73 582.06 274.44 587.5C275.15 592.94 275.71 598.4 276.15 603.87C276.59 609.34 276.93 614.87 276.95 620.31L276.61 616.21C276.5 614.85 276.35 613.48 276.22 612.12C275.98 609.39 275.69 606.67 275.38 603.94C274.793 598.5 274.15 593.06 273.45 587.62C272.82 582.18 272.07 576.75 271.38 571.31L269.3 555Z" fill="#919395"/>
<path d="M254.25 648.44C254.25 648.44 258.17 641.98 265.43 642.26L266.89 645.5C266.89 645.5 260.06 645.24 256.8 650.87C255.874 650.143 255.021 649.329 254.25 648.44Z" fill="#404041"/>
<path d="M319.59 653.1C319.59 653.1 314.52 655.52 314.96 663.76L318.19 663.86C318.19 663.86 317.68 657.44 322.79 654.76L319.59 653.1Z" fill="#404041"/>
<path d="M263.8 227.24C263.963 226.461 264.336 225.741 264.88 225.16C265.428 224.557 266.114 224.097 266.88 223.82C267.658 223.537 268.499 223.475 269.31 223.64C269.704 223.715 270.087 223.839 270.45 224.01C270.807 224.195 271.143 224.42 271.45 224.68C270.65 224.68 269.95 224.68 269.28 224.68C268.628 224.723 267.985 224.858 267.37 225.08C266.068 225.595 264.861 226.326 263.8 227.24Z" fill="#434243"/>
<path d="M284.08 223.66C284.579 223.025 285.243 222.541 286 222.26C286.757 221.953 287.578 221.836 288.39 221.92C289.214 222.001 290 222.309 290.66 222.81C290.984 223.045 291.274 223.324 291.52 223.64C291.757 223.948 291.956 224.283 292.11 224.64C291.39 224.31 290.79 223.95 290.11 223.73C289.506 223.486 288.869 223.331 288.22 223.27C286.828 223.17 285.429 223.302 284.08 223.66Z" fill="#434243"/>
<path d="M279.26 234.05C279.162 235.44 279.192 236.836 279.35 238.22C279.375 238.483 279.375 238.747 279.35 239.01C279.34 239.122 279.32 239.232 279.29 239.34L279.21 239.72C279.17 239.976 279.103 240.228 279.01 240.47L278.57 241.47C278.973 241.578 279.4 241.557 279.79 241.41C280.203 241.242 280.553 240.948 280.79 240.57C280.905 240.391 280.999 240.2 281.07 240C281.153 239.788 281.206 239.566 281.23 239.34C281.273 238.909 281.246 238.473 281.15 238.05C281.009 237.316 280.774 236.603 280.45 235.93C280.134 235.256 279.734 234.624 279.26 234.05Z" fill="#DEA2A9"/>
<path d="M289.462 229.872C289.64 228.503 289.029 227.295 288.098 227.174C287.166 227.054 286.268 228.066 286.09 229.435C285.913 230.805 286.524 232.012 287.455 232.133C288.386 232.254 289.285 231.241 289.462 229.872Z" fill="#434243"/>
<path d="M287.61 227.24C288.056 227.124 288.524 227.124 288.97 227.24C289.403 227.359 289.812 227.552 290.18 227.81C290.022 228.039 289.796 228.213 289.535 228.308C289.273 228.403 288.988 228.414 288.72 228.34C288.455 228.27 288.213 228.131 288.018 227.938C287.824 227.745 287.683 227.504 287.61 227.24Z" fill="#434243"/>
<path d="M269.773 233.48C270.691 233.28 271.196 232.024 270.903 230.675C270.609 229.326 269.627 228.394 268.71 228.594C267.792 228.794 267.287 230.049 267.58 231.398C267.874 232.747 268.856 233.679 269.773 233.48Z" fill="#434243"/>
<path d="M269.2 228.62C268.743 228.553 268.276 228.598 267.84 228.75C267.417 228.904 267.025 229.131 266.68 229.42C266.856 229.637 267.095 229.792 267.365 229.864C267.634 229.936 267.92 229.92 268.18 229.82C268.441 229.728 268.672 229.568 268.851 229.357C269.03 229.146 269.151 228.892 269.2 228.62Z" fill="#434243"/>
<path d="M275.59 247C277.77 247 282.07 246.93 285.14 245.72C285.73 245.49 286.42 245.87 286.37 246.4C286.24 247.78 285.37 249.91 281.58 250.4C277.79 250.89 275.74 249.2 274.84 248C274.49 247.52 274.92 246.93 275.59 247Z" fill="#E77083"/>
</g>
<g clip-path="url(#clip1)">
<path d="M139.58 638.18C154.42 638.88 173.43 639.81 192.81 638.66C192.81 638.66 202.01 623.29 181.23 621.72C160.45 620.15 161.36 608.43 161.36 608.43C154.92 607.87 146.78 607.89 136.85 607.04L135.12 633.17C135.077 633.793 135.158 634.419 135.36 635.01C135.562 635.602 135.88 636.147 136.296 636.614C136.711 637.08 137.216 637.459 137.78 637.728C138.344 637.997 138.956 638.151 139.58 638.18Z" fill="#404041"/>
<path d="M83.78 617.36C83.78 617.36 82.23 635.89 82.1 642.36C81.97 648.83 91.68 664.91 106.45 673.04C117.91 679.36 136.27 674.5 126.83 658.59C117.39 642.68 108.37 640.11 108.61 627.65C108.85 615.19 83.78 617.36 83.78 617.36Z" fill="#404041"/>
<path d="M87.43 448.18C87.43 448.18 81.68 524.89 80.83 542.78L76.71 629.6C76.71 629.6 93 642.76 113.6 630L127.2 521.25C127.2 521.25 132.35 534.95 131.79 563.39C131.23 591.83 131.7 615.33 131.7 615.33C143.219 618.679 155.539 617.973 166.6 613.33C166.6 613.33 173.08 537.96 175.39 522.52C177.7 507.08 178.21 468.66 167.23 438.97C156.25 409.28 87.43 448.18 87.43 448.18Z" fill="#DEDFE1"/>
<path d="M98.34 259.91C98.34 259.91 68.53 271.55 64.34 286.64C60.15 301.73 66.1 316.19 72.52 325.49C78.94 334.79 85.18 350.38 85.18 350.38L90.53 348.66C90.53 348.66 96.63 397.99 78.47 452.76C78.47 452.76 123.47 466.76 176.08 440.52C176.08 440.52 166.7 382.6 168.23 356.04L187.49 333.49L191.61 331.4C191.61 331.4 179.61 277.22 168.88 271.83C158.15 266.44 128.38 256.72 128.38 256.72L101.33 255.44L98.34 259.91Z" fill="#E9E9E9"/>
<path d="M150.58 357.27C150.58 357.27 171.51 364.35 184.13 358.81C196.97 353.18 187.53 333.49 187.53 333.49C187.53 333.49 183.84 337.09 176.13 336.73L156.05 339.29L150.58 357.27Z" fill="#F9CBC1"/>
<path d="M120.38 328C120.38 328 131.38 338.89 133.58 338.73C135.78 338.57 164 319.96 176.13 336.73C173.946 339.593 171.01 341.795 167.65 343.09C167.65 343.09 156.06 350.27 152.22 355.28C148.38 360.29 139.6 369.36 129.22 364.03C118.84 358.7 99.81 344.7 98.06 344.53C98.06 344.53 111.49 337.44 120.38 328Z" fill="#F9CBC1"/>
<path d="M122 329.59C122 329.59 131.52 323.45 133.06 325.59C134.6 327.73 140.69 333 143.94 334C147.19 335 139.09 345.77 131.35 342.3C123.61 338.83 122 329.59 122 329.59Z" fill="#F9CBC1"/>
<path d="M130.1 253.32C130.1 253.32 135.56 255.02 137.75 260.07C137.75 260.07 162.91 268.77 161.92 293.47L160 294.2L159.49 292.34C159.49 292.34 155.78 269.16 139.49 264.5C139.49 264.5 141.11 290.27 154.63 296.29L154.41 298.55C154.41 298.55 138.71 295.44 137.7 266.79C137.7 266.79 134.88 258.57 129.62 256.43C124.36 254.29 130.1 253.32 130.1 253.32Z" fill="#A6A8AB"/>
<path d="M155.94 297.01C156.768 297.01 157.44 296.338 157.44 295.51C157.44 294.682 156.768 294.01 155.94 294.01C155.112 294.01 154.44 294.682 154.44 295.51C154.44 296.338 155.112 297.01 155.94 297.01Z" fill="#58595B"/>
<path d="M102.2 256.4C102.2 256.4 94.61 267.4 120.44 289.78L121.73 292.22L118.15 292.58C118.15 292.58 101.29 280.18 98.83 265.47C96.37 250.76 104.12 252.1 104.12 252.1L102.2 256.4Z" fill="#A6A8AB"/>
<path d="M124.98 303.35C129.15 303.35 132.53 299.97 132.53 295.8C132.53 291.63 129.15 288.25 124.98 288.25C120.81 288.25 117.43 291.63 117.43 295.8C117.43 299.97 120.81 303.35 124.98 303.35Z" fill="#58595B"/>
<path d="M100.51 235.23C100.51 235.23 103.27 247.88 102.2 256.4L132.6 285.27L131.34 254.36C131.34 254.36 129.59 236.48 132.69 226C135.79 215.52 100.51 235.23 100.51 235.23Z" fill="#DEA2A9"/>
<path d="M136.76 214.27C136.76 214.27 138 227.25 131.91 225C125.82 222.75 131.79 208 133.21 208.72C134.63 209.44 136.76 214.27 136.76 214.27Z" fill="#E8B7AF"/>
<path d="M91.55 224.34C91.55 224.34 91.55 234.98 99.73 235.28C107.91 235.58 95.8 217.28 93.73 218.83C91.66 220.38 91.55 224.34 91.55 224.34Z" fill="#E8B7AF"/>
<path d="M95.23 224.17C95.23 224.17 99.74 239.89 103.75 243.23C124.47 260.46 131.53 240.91 133.24 233C134.58 226.81 131.61 215.49 131.61 215.49C131.61 215.49 137.52 201.1 129.25 196.29C120.98 191.48 101.69 192.21 95.44 197.58C89.19 202.95 89.2 201.24 89.66 208.25C90.12 215.26 95.23 224.17 95.23 224.17Z" fill="#F9CBC1"/>
<path d="M92.68 217.19C92.68 217.19 95.32 209.76 93.31 203.95C98.4756 204.755 103.751 204.499 108.814 203.197C113.878 201.896 118.623 199.576 122.76 196.38C122.76 196.38 124.82 202.9 131 205.56C131 205.56 130.37 211.42 131.58 215.56C131.58 215.56 133.07 210.14 136.73 214.31C136.73 214.31 137.67 174.31 105.37 180.75C73.07 187.19 91.39 224 91.39 224C91.39 224 92.95 222.22 95.23 224.18C95.23 224.17 94.22 218.52 92.68 217.19Z" fill="#59595C"/>
<path d="M125.63 298.28C128.391 298.28 130.63 296.041 130.63 293.28C130.63 290.519 128.391 288.28 125.63 288.28C122.869 288.28 120.63 290.519 120.63 293.28C120.63 296.041 122.869 298.28 125.63 298.28Z" fill="#A6A8AB"/>
<path d="M156.34 299.72C157.511 299.72 158.46 298.771 158.46 297.6C158.46 296.429 157.511 295.48 156.34 295.48C155.169 295.48 154.22 296.429 154.22 297.6C154.22 298.771 155.169 299.72 156.34 299.72Z" fill="#58595B"/>
<path d="M158.92 295.22C159.748 295.22 160.42 294.548 160.42 293.72C160.42 292.892 159.748 292.22 158.92 292.22C158.092 292.22 157.42 292.892 157.42 293.72C157.42 294.548 158.092 295.22 158.92 295.22Z" fill="#58595B"/>
<path d="M160.55 297.21C161.721 297.21 162.67 296.261 162.67 295.09C162.67 293.919 161.721 292.97 160.55 292.97C159.379 292.97 158.43 293.919 158.43 295.09C158.43 296.261 159.379 297.21 160.55 297.21Z" fill="#58595B"/>
<path d="M124.83 332.24C126.777 330.953 129.056 330.258 131.39 330.24C129.443 331.527 127.164 332.222 124.83 332.24Z" fill="#DEA2A9"/>
<path d="M127.93 335C128.688 334.426 129.551 334.004 130.47 333.76C131.378 333.479 132.334 333.384 133.28 333.48C132.528 334.064 131.663 334.486 130.74 334.72C129.832 335.001 128.876 335.096 127.93 335Z" fill="#DEA2A9"/>
<path d="M120.38 328L123.12 330.29L125.82 332.61C127.65 334.13 129.44 335.69 131.34 337.05C131.8 337.387 132.281 337.694 132.78 337.97C132.991 338.094 133.221 338.185 133.46 338.24C133.535 338.263 133.615 338.263 133.69 338.24C133.8 338.24 133.93 338.16 134.06 338.1C135.13 337.67 136.2 337.1 137.29 336.65C138.38 336.2 139.47 335.65 140.57 335.22C141.67 334.79 142.8 334.36 143.94 334L137.63 337.34C136.63 337.91 135.55 338.46 134.43 338.98L133.97 339.16C133.765 339.232 133.545 339.252 133.33 339.22C132.979 339.16 132.641 339.042 132.33 338.87C131.78 338.575 131.252 338.24 130.75 337.87C128.83 336.435 127.009 334.871 125.3 333.19C123.6 331.54 121.93 329.83 120.38 328Z" fill="#DEA2A9"/>
<path d="M176.13 336.73C175.653 337.494 175.104 338.211 174.49 338.87C173.875 339.54 173.206 340.159 172.49 340.72C171.777 341.284 171.029 341.802 170.25 342.27C169.466 342.742 168.651 343.16 167.81 343.52H167.88C165.15 345.31 162.43 347.16 159.77 349.07C158.45 350.07 157.12 350.98 155.85 352.02C154.56 353.032 153.343 354.135 152.21 355.32C153.154 353.959 154.248 352.708 155.47 351.59C156.69 350.46 157.93 349.36 159.24 348.36C160.55 347.36 161.88 346.36 163.24 345.43C164.6 344.5 165.98 343.59 167.4 342.74C169.038 342.099 170.6 341.281 172.06 340.3C172.79 339.8 173.48 339.3 174.16 338.69C174.864 338.086 175.523 337.431 176.13 336.73Z" fill="#DEA2A9"/>
<path d="M90.57 348.66C93.44 346.95 96.37 345.33 99.23 343.66C102.09 341.99 104.88 340.11 107.62 338.2C110.36 336.29 113.03 334.3 115.62 332.2C118.229 330.135 120.72 327.925 123.08 325.58L123 326.16C118.6 318.81 114.33 311.38 110 303.99C105.67 296.6 101.45 289.13 97.3 281.63C101.85 288.9 106.3 296.23 110.72 303.56C115.14 310.89 119.52 318.26 123.82 325.67L124 326L123.74 326.25C121.342 328.603 118.811 330.816 116.16 332.88C113.53 334.97 110.78 336.88 107.99 338.75C105.2 340.62 102.35 342.37 99.43 344C96.51 345.63 93.54 347.12 90.57 348.66Z" fill="#A6A7AA"/>
<path d="M166.17 329.94C166 328.62 165.86 327.3 165.67 325.99C165.48 324.68 165.34 323.37 165.15 322.07C164.76 319.45 164.37 316.85 163.91 314.25C163.45 311.65 162.91 309.08 162.37 306.5C162.07 305.22 161.78 303.93 161.37 302.66C160.96 301.39 160.65 300.12 160.37 298.83C161.474 301.249 162.39 303.75 163.11 306.31C163.848 308.865 164.443 311.459 164.89 314.08C165.34 316.7 165.7 319.33 165.89 321.98C166.133 324.626 166.227 327.284 166.17 329.94Z" fill="#A6A7AA"/>
<path d="M127.2 521.25C128.07 516.25 129.03 511.25 130 506.25L133 491.32L136.12 476.41L137.66 469C138.16 466.51 138.73 464 139 461.51C138.858 464.051 138.571 466.582 138.14 469.09C137.733 471.597 137.307 474.1 136.86 476.6C135.97 481.6 134.96 486.6 133.97 491.6C132.98 496.6 131.88 501.54 130.75 506.49C129.62 511.44 128.47 516.33 127.2 521.25Z" fill="#919395"/>
<path d="M99.32 219.13C99.4064 218.184 99.7524 217.281 100.32 216.52C100.889 215.721 101.653 215.08 102.54 214.66C103.426 214.212 104.421 214.024 105.41 214.12C105.889 214.153 106.36 214.254 106.81 214.42C107.252 214.588 107.672 214.809 108.06 215.08C107.192 215.143 106.327 215.25 105.47 215.4C104.699 215.535 103.951 215.781 103.25 216.13C101.788 216.914 100.461 217.927 99.32 219.13Z" fill="#434243"/>
<path d="M117.28 213.41C117.638 212.523 118.233 211.751 119 211.18C119.765 210.58 120.664 210.175 121.62 210C122.596 209.822 123.603 209.915 124.53 210.27C124.98 210.439 125.407 210.664 125.8 210.94C126.172 211.232 126.508 211.568 126.8 211.94C125.86 211.8 125.05 211.58 124.23 211.54C123.45 211.464 122.662 211.494 121.89 211.63C120.269 211.975 118.712 212.576 117.28 213.41Z" fill="#434243"/>
<path d="M114.79 222.14C115.172 223.633 115.677 225.091 116.3 226.5C116.414 226.769 116.508 227.047 116.58 227.33C116.611 227.448 116.627 227.568 116.63 227.69L116.69 228.11C116.729 228.388 116.745 228.669 116.74 228.95L116.63 230.11C117.062 230.144 117.492 230.019 117.84 229.76C118.209 229.494 118.469 229.103 118.57 228.66C118.624 228.441 118.654 228.216 118.66 227.99C118.665 227.742 118.645 227.494 118.6 227.25C118.485 226.783 118.31 226.332 118.08 225.91C117.681 225.172 117.202 224.481 116.65 223.85C116.101 223.207 115.477 222.633 114.79 222.14Z" fill="#DEA2A9"/>
<path d="M105.799 222.843C106.747 222.604 107.306 221.581 107.048 220.558C106.789 219.535 105.811 218.9 104.864 219.14C103.916 219.379 103.357 220.402 103.615 221.425C103.874 222.448 104.852 223.083 105.799 222.843Z" fill="#434243"/>
<path d="M123.26 218.734C124.207 218.495 124.781 217.528 124.54 216.575C124.299 215.622 123.335 215.043 122.388 215.283C121.44 215.522 120.867 216.489 121.108 217.442C121.348 218.395 122.312 218.974 123.26 218.734Z" fill="#434243"/>
<path d="M109.78 238.68C120.78 245.26 124.58 235.46 125.7 234.32C122.91 236.68 111.12 239.54 109.78 238.68Z" fill="#E77083"/>
</g>
<defs>
<linearGradient id="paint0_linear" x1="496.5" y1="29.5" x2="320.385" y2="572.205" gradientUnits="userSpaceOnUse">
<stop stop-color="#C0E3DA"/>
<stop offset="0.723958" stop-color="#00C4B7"/>
</linearGradient>
<clipPath id="clip0">
<rect width="151.02" height="490.99" fill="white" transform="translate(195 185)"/>
</clipPath>
<clipPath id="clip1">
<rect width="131.84" height="495.74" fill="white" transform="translate(63 180)"/>
</clipPath>
</defs>
</svg>
