<svg width="187" height="47" viewBox="0 0 187 47" fill="none" xmlns="http://www.w3.org/2000/svg">
<path d="M159.109 13.3634H155.611V8.39217C155.611 7.4701 155.246 6.58561 154.595 5.93242C153.944 5.27922 153.061 4.91056 152.139 4.90717H144.861C143.939 4.91056 143.056 5.27922 142.405 5.93242C141.754 6.58561 141.389 7.4701 141.389 8.39217V13.3634H137.891C136.481 13.3634 135.129 13.9236 134.131 14.9208C133.134 15.9179 132.574 17.2704 132.574 18.6806V34.7859C132.574 35.1257 132.709 35.4516 132.949 35.6919C133.19 35.9322 133.516 36.0672 133.855 36.0672H144.438C144.438 36.0672 144.438 36.0672 144.515 36.0672H152.485C152.485 36.0672 152.485 36.0672 152.562 36.0672H163.145C163.484 36.0672 163.81 35.9322 164.051 35.6919C164.291 35.4516 164.426 35.1257 164.426 34.7859V18.6806C164.426 17.2704 163.866 15.9179 162.869 14.9208C161.871 13.9236 160.519 13.3634 159.109 13.3634ZM143.952 8.39217C143.952 8.14971 144.047 7.91699 144.217 7.74435C144.387 7.57171 144.619 7.47303 144.861 7.46967H152.139C152.381 7.47303 152.613 7.57171 152.783 7.74435C152.953 7.91699 153.048 8.14971 153.048 8.39217V16.1822H143.952V8.39217ZM151.203 33.5047H145.797V22.8703H151.203V33.5047ZM161.863 33.5047H153.766V21.589C153.766 21.2492 153.631 20.9233 153.391 20.6831C153.15 20.4428 152.824 20.3078 152.485 20.3078H144.515C144.176 20.3078 143.85 20.4428 143.609 20.6831C143.369 20.9233 143.234 21.2492 143.234 21.589V33.5047H135.137V18.6806C135.14 17.9511 135.431 17.2523 135.947 16.7365C136.463 16.2206 137.162 15.9293 137.891 15.9259H141.389V17.4634C141.389 17.8032 141.524 18.1291 141.764 18.3694C142.005 18.6097 142.331 18.7447 142.67 18.7447H154.33C154.669 18.7447 154.995 18.6097 155.236 18.3694C155.476 18.1291 155.611 17.8032 155.611 17.4634V15.9259H159.109C159.838 15.9293 160.537 16.2206 161.053 16.7365C161.569 17.2523 161.86 17.9511 161.863 18.6806V33.5047Z" fill="#00C4B7"/>
<path d="M151.062 10.865H149.525V9.3403C149.525 9.08544 149.424 8.84103 149.244 8.66082C149.063 8.48061 148.819 8.37936 148.564 8.37936C148.309 8.37936 148.065 8.48061 147.885 8.66082C147.704 8.84103 147.603 9.08544 147.603 9.3403V10.865H146.066C145.811 10.865 145.566 10.9662 145.386 11.1464C145.206 11.3267 145.105 11.5711 145.105 11.8259C145.105 12.0808 145.206 12.3252 145.386 12.5054C145.566 12.6856 145.811 12.7869 146.066 12.7869H147.603V14.3244C147.603 14.5792 147.704 14.8236 147.885 15.0038C148.065 15.1841 148.309 15.2853 148.564 15.2853C148.819 15.2853 149.063 15.1841 149.244 15.0038C149.424 14.8236 149.525 14.5792 149.525 14.3244V12.8125H151.062C151.317 12.8125 151.562 12.7112 151.742 12.531C151.922 12.3508 152.023 12.1064 152.023 11.8516C152.023 11.5967 151.922 11.3523 151.742 11.1721C151.562 10.9919 151.317 10.8906 151.062 10.8906V10.865Z" fill="#00C4B7"/>
<path d="M139.877 20.0644H138.109C137.706 20.0644 137.379 20.3914 137.379 20.7947V22.5628C137.379 22.9662 137.706 23.2931 138.109 23.2931H139.877C140.281 23.2931 140.608 22.9662 140.608 22.5628V20.7947C140.608 20.3914 140.281 20.0644 139.877 20.0644Z" fill="#00C4B7"/>
<path d="M139.877 26.4706H138.109C137.706 26.4706 137.379 26.7976 137.379 27.201V28.9691C137.379 29.3724 137.706 29.6994 138.109 29.6994H139.877C140.281 29.6994 140.608 29.3724 140.608 28.9691V27.201C140.608 26.7976 140.281 26.4706 139.877 26.4706Z" fill="#00C4B7"/>
<path d="M158.891 20.0644H157.123C156.719 20.0644 156.392 20.3914 156.392 20.7947V22.5628C156.392 22.9662 156.719 23.2931 157.123 23.2931H158.891C159.294 23.2931 159.621 22.9662 159.621 22.5628V20.7947C159.621 20.3914 159.294 20.0644 158.891 20.0644Z" fill="#00C4B7"/>
<path d="M158.891 26.4706H157.123C156.719 26.4706 156.392 26.7976 156.392 27.201V28.9691C156.392 29.3724 156.719 29.6994 157.123 29.6994H158.891C159.294 29.6994 159.621 29.3724 159.621 28.9691V27.201C159.621 26.7976 159.294 26.4706 158.891 26.4706Z" fill="#00C4B7"/>
<path d="M1.584 31.976H3.924V17.432H1.584V14.408H11.196V17.432H8.856V23.012H17.388V17.432H15.048V14.408H24.66V17.432H22.32V31.976H24.66V35H15.048V31.976H17.388V25.964H8.856V31.976H11.196V35H1.584V31.976ZM39.2226 35.396C36.9426 35.396 34.9266 34.94 33.1746 34.028C31.4226 33.116 30.0666 31.856 29.1066 30.248C28.1706 28.616 27.7026 26.792 27.7026 24.776C27.7026 22.736 28.1706 20.9 29.1066 19.268C30.0666 17.636 31.4226 16.364 33.1746 15.452C34.9266 14.516 36.9426 14.048 39.2226 14.048C41.5026 14.048 43.5066 14.516 45.2346 15.452C46.9866 16.364 48.3306 17.636 49.2666 19.268C50.2266 20.9 50.7066 22.724 50.7066 24.74C50.7066 26.78 50.2266 28.616 49.2666 30.248C48.3306 31.856 46.9866 33.116 45.2346 34.028C43.5066 34.94 41.5026 35.396 39.2226 35.396ZM39.2226 31.94C41.1426 31.94 42.6666 31.256 43.7946 29.888C44.9466 28.52 45.5226 26.78 45.5226 24.668C45.5226 22.556 44.9586 20.828 43.8306 19.484C42.7266 18.14 41.2146 17.468 39.2946 17.468C37.3266 17.468 35.7666 18.14 34.6146 19.484C33.4626 20.804 32.8866 22.544 32.8866 24.704C32.8866 26.816 33.4506 28.556 34.5786 29.924C35.7306 31.268 37.2786 31.94 39.2226 31.94ZM64.195 22.472C66.595 22.928 68.347 23.66 69.451 24.668C70.555 25.652 71.107 27.104 71.107 29.024C71.107 30.92 70.483 32.456 69.235 33.632C67.987 34.784 66.295 35.36 64.159 35.36C62.911 35.36 61.711 35.12 60.559 34.64C59.407 34.16 58.507 33.512 57.859 32.696V35H54.403V28.016H57.499C57.883 29.336 58.603 30.404 59.659 31.22C60.715 32.012 61.987 32.408 63.475 32.408C64.435 32.408 65.179 32.192 65.707 31.76C66.259 31.304 66.535 30.668 66.535 29.852C66.535 28.916 66.247 28.244 65.671 27.836C65.119 27.404 64.111 27.044 62.647 26.756L60.811 26.396C58.651 25.964 57.019 25.232 55.915 24.2C54.811 23.144 54.259 21.74 54.259 19.988C54.259 18.164 54.871 16.712 56.095 15.632C57.319 14.552 58.951 14.012 60.991 14.012C62.263 14.012 63.391 14.216 64.375 14.624C65.383 15.008 66.211 15.56 66.859 16.28V14.408H70.099V20.348H67.111C66.775 19.388 66.199 18.584 65.383 17.936C64.591 17.288 63.475 16.964 62.035 16.964C61.099 16.964 60.367 17.18 59.839 17.612C59.335 18.02 59.083 18.584 59.083 19.304C59.083 20.12 59.395 20.756 60.019 21.212C60.667 21.644 61.687 21.992 63.079 22.256L64.195 22.472ZM74.1817 31.976H76.5217V17.432H74.1817V14.408H85.0177C87.8017 14.408 89.9017 14.9 91.3177 15.884C92.7337 16.868 93.4417 18.392 93.4417 20.456C93.4417 24.68 90.7177 26.792 85.2697 26.792H82.8577V23.768H84.6937C85.8697 23.768 86.7697 23.492 87.3937 22.94C88.0177 22.388 88.3297 21.584 88.3297 20.528C88.3297 19.52 88.0417 18.752 87.4657 18.224C86.8897 17.696 86.0737 17.432 85.0177 17.432H81.4537V31.976H83.9737V35H74.1817V31.976ZM96.2297 31.976H98.5697V17.432H96.2297V14.408H105.878V17.432H103.502V31.976H105.878V35H96.2297V31.976ZM113.768 31.976H116.252V17.36H111.896V21.86H108.584V14.408H128.78V21.86H125.504V17.36H121.184V31.976H123.704V35H113.768V31.976Z" fill="#01C5B8"/>
<path d="M168.584 31.976H170.924V17.252H168.584V14.408H178.196V17.252H175.856V31.976H182.552V26.216H186.008V35H168.584V31.976Z" fill="#01C5B8"/>
</svg>
